<?xml version="1.0" encoding="UTF-8" standalone="no"?>
<!-- Created with Inkscape (http://www.inkscape.org/) -->

<svg
   width="26.617584mm"
   height="25.4mm"
   viewBox="0 0 26.617584 25.4"
   version="1.1"
   id="svg1"
   xmlns="http://www.w3.org/2000/svg"
   xmlns:svg="http://www.w3.org/2000/svg">
  <defs
     id="defs1" />
  <g
     id="layer1"
     transform="translate(-54.290703,-71.102543)">
    <path
       style="fill:#ffff00;stroke-width:1.388;stroke-miterlimit:7.7;paint-order:fill markers stroke"
       id="path1"
       d="m 74.448936,105.19149 c -0.275135,0.0172 -5.11822,-11.649021 -5.350942,-11.796796 -0.232722,-0.147774 -12.851061,0.43078 -12.952477,0.174438 -0.101416,-0.256343 9.497264,-8.467464 9.565891,-8.734461 0.06863,-0.266996 -4.380892,-12.088966 -4.168435,-12.264633 0.212457,-0.175667 10.987853,6.415845 11.262988,6.398607 0.275136,-0.01724 10.14352,-7.902173 10.376242,-7.754398 0.232722,0.147774 -2.706397,12.432674 -2.604981,12.689016 0.101416,0.256343 10.649932,7.205156 10.581306,7.472152 -0.06863,0.266997 -12.660499,1.267971 -12.872956,1.443638 -0.212457,0.175666 -3.5615,12.355207 -3.836636,12.372437 z"
       transform="matrix(-0.19637853,-0.73289465,0.73289465,-0.19637853,18.43374,155.85631)" />
  </g>
</svg>
